<svg xmlns="http://www.w3.org/2000/svg" height="40" viewBox="0 -960 960 960" width="40"><path d="M185.333-89.334q-19.074 0-34.036-11.333-14.963-11.333-19.16-29.375L12.53-565.182q-4.196-17.151 6.137-30.651 10.333-13.5 27.187-13.5h204.813l192.667-282q6.666-9 15.833-13.833Q468.333-910 479-910q10.667 0 19.667 4.834 8.999 4.833 14.666 13.833l193.333 282h208.812q16.188 0 26.522 13.658 10.333 13.658 6 30.342L829.219-130.048Q825-112 810.829-100.667q-14.17 11.333-33.496 11.333h-592Zm21.333-83.999h546.668L850-525.334H110.666l96 352.001ZM480-265.334q35.666 0 59.833-24.167 24.166-24.166 24.166-59.832 0-35.667-24.166-59.833-24.167-24.167-59.833-24.167t-59.833 24.167Q396.001-385 396.001-349.333q0 35.666 24.166 59.832 24.167 24.167 59.833 24.167ZM353.999-609.333h250.668L480-794.667 353.999-609.333Zm-147.333 436h546.668-546.668Z"/></svg>