<svg xmlns="http://www.w3.org/2000/svg" height="40" viewBox="0 -960 960 960" width="40"><path d="M480-488.667q-72.975 0-120.487-47.512Q312-583.691 312-656.666t47.513-120.487Q407.025-824.666 480-824.666t120.487 47.513Q648-729.641 648-656.666t-47.513 120.487Q552.975-488.667 480-488.667Zm-340 369V-240q0-41 19.959-71.535Q179.917-342.069 212-358q68-32.666 134.272-48.666 66.272-16 133.666-16 67.395 0 133.395 16.333 66 16.333 133.947 48.463 32.951 16.014 52.835 46.442Q820-281 820-240v120.333H140Zm84-84h512V-240q0-14.333-6.716-25.783-6.717-11.449-16.951-16.217-61.666-29.667-118.166-43.167T480-338.667q-57.667 0-114.5 13.333Q308.667-312 247.667-282 237-277.334 230.5-265.96 224-254.586 224-240v36.333Zm256-368.999q36 0 60-24t24-60q0-36-24-60t-60-24q-36 0-60 24t-24 60q0 36 24 60t60 24Zm0-84Zm0 452.999Z"/></svg>